<?xml version="1.0" encoding="UTF-8"?>
<svg id="Livello_2" data-name="Livello 2" xmlns="http://www.w3.org/2000/svg" viewBox="0 0 913.46 964.66">
  <defs>
    <style>
      .cls-1 {
        fill: #f1f1f1;
      }

      .cls-1, .cls-2, .cls-3, .cls-4 {
        stroke-width: 0px;
      }

      .cls-2 {
        fill: #b2b1b1;
      }

      .cls-3 {
        fill: #dc1813;
      }

      .cls-4 {
        fill: #a40f0a;
      }
    </style>
  </defs>
  <g id="Livello_1-2" data-name="Livello 1">
    <g>
      <path class="cls-2" d="M71.85,755.24C47.86,556.29,23.95,358.02,0,159.38c13.45-4.73,26.23-9.19,38.99-13.71,23.9-8.46,47.76-17.02,71.68-25.43,25.17-8.85,50.39-17.54,75.57-26.36,48.96-17.14,97.91-34.3,146.85-51.5,29.7-10.44,59.38-20.96,89.06-31.46,9.22-3.26,18.46-6.46,27.61-9.89,3.62-1.36,6.93-1.37,10.59-.09,31.13,10.82,62.3,21.54,93.48,32.22,30.86,10.57,61.76,21.01,92.62,31.6,21.45,7.36,42.83,14.96,64.28,22.32,23.18,7.96,46.44,15.71,69.63,23.66,43.4,14.88,86.77,29.84,130.15,44.78.92.32,1.81.7,2.96,1.15-23.96,198.72-47.91,397.31-71.89,596.2-13.26,7.32-26.47,14.58-39.65,21.91-22.47,12.49-44.89,25.07-67.36,37.54-17.11,9.5-34.3,18.87-51.41,28.36-26.4,14.64-52.74,29.38-79.15,43.99-23.37,12.92-46.83,25.66-70.19,38.59-22.92,12.7-45.83,25.43-68.6,38.39-6.21,3.53-11.11,4.34-18.08.31-25.56-14.78-51.73-28.51-77.63-42.71-33.61-18.42-67.18-36.92-100.77-55.37-30.83-16.93-61.67-33.84-92.5-50.78-33.3-18.3-66.6-36.6-99.89-54.93-1.58-.87-3.03-1.98-4.48-2.94ZM454.69,915.75c17.62-9.59,35.28-19.09,52.84-28.78,29.77-16.43,59.46-33.01,89.21-49.48,23.23-12.86,46.51-25.64,69.75-38.48,37.47-20.7,74.92-41.42,112.37-62.16,7.67-4.24,15.28-8.58,22.39-12.57,22.4-178.21,44.7-355.61,67.03-533.24-3.55-1.3-6.62-2.49-9.73-3.55-44.66-15.26-89.31-30.51-133.98-45.74-48.58-16.56-97.16-33.11-145.74-49.64-41.38-14.08-82.77-28.14-124.16-42.21-.65.04-1.35-.06-1.94.15-15.11,5.44-30.18,10.97-45.31,16.36-48.8,17.4-97.63,34.74-146.44,52.11-48.65,17.32-97.3,34.66-145.95,51.99-21.35,7.6-42.69,15.21-64.18,22.87,20.59,178.01,41.14,355.72,61.7,533.5,14.92,8.33,29.52,16.53,44.18,24.64,19.89,11.01,39.85,21.89,59.74,32.91,26.26,14.55,52.45,29.21,78.71,43.76,20.03,11.1,40.14,22.04,60.15,33.16,28.43,15.79,56.75,31.78,85.26,47.42,4.57,2.51,8.72,6.06,14.11,6.98Z"/>
      <path class="cls-4" d="M454.67,49.91c41.39,14.07,82.77,28.12,124.16,42.21,48.59,16.53,97.17,33.08,145.74,49.64,44.66,15.23,89.32,30.48,133.98,45.74,3.11,1.06,6.18,2.25,9.73,3.55-22.33,177.63-44.63,355.03-67.03,533.24-7.1,3.99-14.72,8.33-22.39,12.57-37.45,20.73-74.91,41.45-112.37,62.16-23.24,12.84-46.52,25.62-69.75,38.48-29.75,16.47-59.44,33.05-89.21,49.48-17.56,9.69-35.22,19.19-52.84,28.78-.2-2.11-.57-4.22-.57-6.33.04-104.38.16-208.76.1-313.14,0-10.53.66-21.08-.51-31.6.83-.07,1.65-.21,2.48-.21,42.82,0,85.64,0,128.46.01.49,0,.97.16,2.03.34,20.48,47.4,41.07,95.05,61.68,142.72,33.52.6,66.81,1.2,100.54,1.81-6.29-13.27-12.24-25.68-18.07-38.14-21.21-45.33-42.35-90.69-63.6-136-14.01-29.87-28.21-59.65-42.22-89.51-22.11-47.11-44.14-94.26-66.21-141.39-19.82-42.32-39.65-84.64-59.46-126.97-9.06-19.36-18.02-38.76-27.13-58.09-5.64-11.98-11.47-23.88-17.21-35.81-.16-.6-.32-1.2-.48-1.8-.44-10.58-.79-21.16.15-31.73Z"/>
      <path class="cls-3" d="M453.71,564.69c1.17,10.52.5,21.07.51,31.6.06,104.38-.06,208.76-.1,313.14,0,2.11.37,4.22.57,6.33-5.39-.92-9.54-4.47-14.11-6.98-28.51-15.64-56.83-31.63-85.26-47.42-20.01-11.12-40.12-22.06-60.15-33.16-26.26-14.55-52.45-29.21-78.71-43.76-19.89-11.02-39.85-21.91-59.74-32.91-14.65-8.11-29.25-16.31-44.18-24.64-20.56-177.78-41.11-355.49-61.7-533.5,21.49-7.66,42.84-15.27,64.18-22.87,48.65-17.33,97.3-34.67,145.95-51.99,48.81-17.38,97.64-34.72,146.44-52.11,15.12-5.39,30.2-10.92,45.31-16.36.59-.21,1.29-.11,1.94-.15-.94,10.57-.59,21.15-.15,31.73-.78,1.26-1.7,2.44-2.31,3.78-7.44,16.43-14.85,32.87-22.23,49.33-21.66,48.27-43.25,96.57-64.95,144.81-28.95,64.36-58,128.67-86.95,193.02-30.05,66.8-60.04,133.62-90.06,200.43-5.11,11.37-10.19,22.74-15.43,34.43,35.33-.64,70.04-1.26,105-1.89,18.72-46.87,37.46-93.78,56.2-140.7.99-.07,1.99-.19,2.98-.19,38.98,0,77.96.01,116.93.03Z"/>
      <path class="cls-2" d="M453.71,564.69c-38.98-.01-77.96-.02-116.93-.03-.99,0-1.99.12-2.98.19,1.5-2.08,3.7-1.06,5.53-1.06,36.43-.07,72.87-.04,109.3-.08,1.92,0,4.01.64,6.03-1.1,0-27.09,0-54.38,0-81.68,31.54,0,63.09,0,95.12,0-.97-2.4-1.55-4.11-2.33-5.72-14.64-30.66-29.28-61.32-43.97-91.96-13.69-28.56-27.39-57.11-41.19-85.61-2.42-4.99-3.8-10.54-7.61-14.82-.01-63.85-.02-127.69-.06-191.54,0-2.63-.6-5.27.39-7.84,5.74,11.93,11.57,23.83,17.21,35.81,9.1,19.34,18.07,38.74,27.13,58.09,19.81,42.33,39.64,84.64,59.46,126.97,22.07,47.13,44.1,94.28,66.21,141.39,14.02,29.86,28.22,59.64,42.22,89.51,21.25,45.31,42.38,90.68,63.6,136,5.83,12.46,11.78,24.87,18.07,38.14-33.73-.61-67.02-1.21-100.54-1.81-20.6-47.68-41.19-95.32-61.68-142.72-1.06-.18-1.54-.34-2.03-.34-42.82-.01-85.64-.02-128.46-.01-.83,0-1.65.14-2.48.21Z"/>
      <path class="cls-1" d="M454.65,480.93v81.68c-2.02,1.75-4.11,1.1-6.03,1.1-36.43.04-72.87,0-109.3.08-1.83,0-4.03-1.02-5.53,1.06-18.74,46.91-37.48,93.82-56.2,140.7-34.97.63-69.67,1.26-105,1.89,5.24-11.69,10.32-23.06,15.43-34.43,30.01-66.81,60-133.64,90.06-200.43,28.95-64.35,58.01-128.67,86.95-193.02,21.7-48.25,43.3-96.54,64.95-144.81,7.38-16.46,14.79-32.9,22.23-49.33.6-1.33,1.53-2.52,2.31-3.78.16.6.32,1.2.48,1.8-.99,2.57-.39,5.22-.39,7.84.03,63.85.04,127.69.06,191.54-.34,1-.68,2-1.02,3-4.29,9.82-8.69,19.59-12.85,29.45-19.29,45.68-38.52,91.39-57.77,137.09-3.89,9.25-7.73,18.52-11.81,28.3h83.42v.27Z"/>
      <path class="cls-4" d="M453.65,285.81c.34-1,.68-2,1.02-3,3.81,4.28,5.19,9.83,7.61,14.82,13.8,28.5,27.5,57.05,41.19,85.61,14.69,30.64,29.33,61.3,43.97,91.96.77,1.62,1.36,3.32,2.33,5.72-32.03,0-63.57,0-95.12,0,0,0,0-.27,0-.27-.15-.95-.43-1.9-.43-2.85-.01-62.43,0-124.86-.02-187.29,0-1.57.8-3.28-.54-4.72Z"/>
      <path class="cls-3" d="M453.65,285.81c1.34,1.43.54,3.15.54,4.72.03,62.43.01,124.86.02,187.29,0,.95.28,1.9.43,2.85-27.59,0-55.19,0-83.42,0,4.08-9.79,7.92-19.06,11.81-28.3,19.24-45.7,38.47-91.41,57.77-137.09,4.17-9.87,8.56-19.64,12.85-29.45Z"/>
    </g>
  </g>
</svg>