<?xml version="1.0" encoding="utf-8"?>
<!-- Generator: Adobe Illustrator 28.0.0, SVG Export Plug-In . SVG Version: 6.00 Build 0)  -->
<svg version="1.1" id="Livello_2_00000133506125136801265100000012929911724272843452_" 
	 xmlns="http://www.w3.org/2000/svg" xmlns:xlink="http://www.w3.org/1999/xlink" x="0px" y="0px" viewBox="0 0 144 144"
	 style="enable-background:new 0 0 144 144;" xml:space="preserve">
<style type="text/css">
	.st0{fill:#FFFFFF;}
</style>
<g>
	<path d="M5.7,71.7C5.5,34.7,37.1,5.7,72,5.6c34.5-0.1,66.5,28.9,66.4,66.4c-0.1,38-32,66.8-67,66.5C37.3,138.2,5.4,109.8,5.7,71.7
		L5.7,71.7z M105.4,89.9c0.5-1.2,1-2.1,1.4-3.1c4.2-9.8,4.6-19.8,0.3-29.5c-6.2-13.8-17.2-21.6-32.2-23.5c-1-0.1-1.3-0.5-1.3-1.4
		c0.1-1,0-1.9,0-2.9s-0.5-1.6-1.5-1.7c-0.9-0.1-1.6,0.6-1.6,1.7c0,1-0.1,2.1,0,3.1c0,0.8-0.3,1.1-1.1,1.2c-15,1.8-26,9.4-32.2,23.2
		c-4.7,10.5-3.8,21,1,31.3c0.2,0.4,0.3,0.8,0.6,1.4c-1,0-1.7,0-2.5,0c-1,0-1.7,0.4-1.8,1.5c0,0.9,0.8,1.6,1.8,1.6
		c0.9,0,1.8,0.1,2.8-0.1c1.1-0.1,1.8,0.3,2.4,1.1c3,4.2,7,7.5,11.4,10.2c5,3,10.4,4.8,16.3,5.2c1,0.1,1.4,0.4,1.3,1.5
		c-0.1,0.9-0.1,1.8,0,2.6c0.1,0.9,0.6,1.5,1.6,1.4c0.9,0,1.5-0.6,1.5-1.5c0-0.8,0.1-1.5,0-2.3c-0.1-1.2,0.3-1.7,1.6-1.8
		c3.9-0.3,7.7-1.3,11.4-2.8c6.6-2.7,11.9-7.1,16.3-12.7c0.6-0.8,1.2-1.2,2.2-1.1c0.9,0.1,1.8,0.1,2.8,0c1.2,0,1.9-0.7,1.9-1.6
		s-0.8-1.5-1.9-1.6C107,89.8,106.3,89.8,105.4,89.9L105.4,89.9z M57.5,117.6c-1.7-0.7-3.4-1.3-5-2c-1.5-0.7-1.5-0.7-2.4,0.7
		c0.8,0.9,0.7,2.8-0.2,3.4c-1.2,0.7-2.6,1.3-4.2,2.1c0.7-2.1,1.3-3.9,2-5.6c0.1-0.2,0.6-0.6,0.8-0.5c1.2,0.5,1.4-0.4,1.9-1
		c-2.1-1.3-4.1-2.5-6.2-3.8c-0.4,0.3-0.8,0.7-1.3,1.1c1.2,0.7,1,1.5,0.5,2.5c-0.8,1.7-1.5,3.4-2.3,5.2c-1.4,3.2-1.3,3.2,1.7,4.9
		c0.7,0.4,1.3,0.5,2.1,0.1c1.5-0.8,3.1-1.4,4.8-2.2c-0.3,1.7-0.6,3.3-0.8,5c1,0.4,2,0.7,2.9,1.2c0.9,0.4,1.7,0.4,2.5-0.3
		c2.5-2.2,5.1-4.3,7.6-6.4c0.5-0.4,1-0.9,1.5-0.9c1.3,0,1.5-0.7,1.7-1.7c-1.7-0.3-3.3-0.6-4.9-1.1c-1.3-0.4-1.7,0.1-2,1.2
		c0.4,0.2,0.8,0.4,1.5,0.8c-1.8,1.5-3.5,2.9-5.2,4.2c0-1.7,0.1-3.3,0.4-4.9c0-0.3,0.7-0.8,0.8-0.7C56.9,119.4,57.1,118.5,57.5,117.6
		L57.5,117.6z M88,129.7c3.7-1.1,7.2-2.4,10.6-4.2c1.4-0.8,2.8-1.7,3.9-2.8c0.9-0.9,1.6-2.2,2-3.4c0.6-1.6-0.5-2.8-2.2-2.6
		c-0.7,0.1-1.4,0.3-2.2,0.4c0.4-0.5,0.8-1,1.1-1.5c0.3-0.5,0.6-1.1,0.8-1.7c0.4-1.7-0.7-2.9-2.4-2.6c-1.2,0.3-2.4,0.9-3.5,1.4
		c-2.5,1.2-5,2.6-7.5,3.7c-1.2,0.5-1.7,1-1.1,2.3c0.5-0.1,1-0.2,1.9-0.4c0.2,2.9,0.5,5.6,0.6,8.3c0,0.3-0.6,0.8-0.9,0.9
		C87.8,127.8,87.6,128.5,88,129.7L88,129.7z M63.7,131.4c0.1,0,0.2,0.1,0.3,0.1c5.8,0.8,11.5,0.6,17.2-0.3c0.2,0,0.5-0.1,0.6-0.3
		c1-1.6,1.9-3.3,2.9-5c-1.7-0.4-2.7-0.1-3.6,1.2c-1.7,2.3-6.8,3.6-9.2,2.6c0.1-0.3,0.1-0.7,0.2-1c0.1-0.6,0.3-1.2,0.4-1.7
		c0.1-0.2,0.2-0.4,0.3-0.4c1.2-0.6,2.5,0.1,2.7,1.5c0.6,0,1.2,0,1.8-0.1c0.2,0,0.6-0.3,0.7-0.5c0.2-1.6,0.4-3.1,0.7-5.1
		c-1,0.4-2.1,0.4-2.4,0.9c-0.9,1.3-1.4,1.6-3.1,1.2c0.2-0.9,0.4-1.8,0.6-2.9c2.7,0.1,5.7-1.4,7.7,1.7c0.8-0.4,1.6-0.8,2.3-1.2
		c-0.5-1-1.1-1.8-1.4-2.8c-0.3-0.7-0.7-0.8-1.5-0.7c-3.8,0.4-7.7,0.7-11.6,0.9c-1.5,0.1-1.5-0.1-1.7,1.6c0.1,0.1,0.3,0.2,0.4,0.1
		c1.2-0.1,1.3,0.6,1,1.5c-0.7,2-1.4,4-2,6c-0.2,0.8-0.7,1.2-1.5,1C64.2,129.6,63.9,130.3,63.7,131.4L63.7,131.4z M37.4,37.5
		c-1.5,1.3-1.5,1.3-2.7,0c-1.6-1.9-3.1-3.8-4.7-5.6c-0.6-0.7-0.5-1.2,0.3-1.6c1-0.6,2.1-0.7,3.2-0.2c0.8,0.3,1.2,0.2,1.6-0.6
		c0.2-0.4,0.4-0.7,0.7-1.2c-1.2-0.8-2.3-1.5-3.3-2.3c-0.8-0.7-1.4-0.5-2,0.2c-1.2,1.4-2.6,2.8-3.8,4.3c-1.5,1.8-3,3.5-4.4,5.3
		c-0.3,0.3-0.7,0.9-0.5,1.2c0.8,1.8,1.6,3.5,2.4,5.2c1.6-0.8,1.9-1.8,1.4-3.3s-0.1-3,0.6-3.8c2,1.7,3.9,3.4,5.8,5.1
		c1.6,1.5,1.6,1.5,0.8,3.5c0.5,0.4,1,0.9,1.5,1.3c1.5-2,3-3.9,4.5-5.8C38.3,38.6,37.9,38.1,37.4,37.5L37.4,37.5z M112.9,39.9
		c1.3,0.4,2.6,1,3.8,1c1.8,0.1,2.8-1.5,2-3.2c-0.3-0.6-0.6-1.2-1.1-1.7c-1.2-1.4-2.3-2.8-3.6-4.2c-1-1.2-1.1-1.1-2.4-0.1
		c0.2,0.3,0.4,0.6,0.6,0.9c-1.9,1.2-3.8,2.4-5.6,3.5c-0.2,0.1-0.6,0.2-0.8,0.1c-0.8-0.7-1.2,0-1.7,0.4c1.1,1.1,2.1,2.1,3.1,3.1
		c0.1-0.1,0.3-0.1,0.5-0.2c0.2-0.1,0.4-0.2,0.6-0.4c-0.4-1-0.4-1,0.3-1.4c0.3-0.2,0.7-0.4,1.1-0.6c0.3-0.1,0.6-0.1,0.8-0.2
		c0,0.3,0.2,0.7,0.1,1c-0.5,1.1-1.1,2.2-1.5,3.2c-0.1,0.3-0.2,0.8,0,1.1c0.4,0.7,1,1.4,1.5,2c0.5-0.2,0.9-0.3,1.3-0.5
		C111.3,42.1,112.7,41.1,112.9,39.9L112.9,39.9z M45.4,33.2c-0.3-0.5-0.5-0.8-0.7-1.2c-0.7,0.7-1.1,0.3-1.4-0.3
		c-0.2-0.4-0.4-0.7-0.6-1.1c-0.1-0.2,0-0.6-0.1-0.8c0.3,0,0.6-0.1,0.9,0c1.1,0.5,2.2,1.2,3.3,1.7c0.3,0.2,0.8,0.2,1.1,0.1
		c0.7-0.3,1.4-0.8,2.1-1.2c-0.2-0.5-0.3-0.9-0.5-1.2c-1.8,0.5-2.8-0.9-4.1-1.2c0.4-0.8,0.9-1.4,1.2-2.2c0.4-1,0.2-2.1-0.5-2.9
		c-0.8-0.8-1.8-1-2.8-0.4c-2.4,1.4-4.8,3-7.2,4.5c0.4,0.7,0.7,1.2,1,1.7c0.8-1,1.2-0.5,1.7,0.3c0.8,1.3,1.5,2.6,2.4,3.9
		c0.5,0.7,0.9,1.4,0,2.1c0.3,0.4,0.6,0.7,0.8,1.1C43.2,35,44.2,34.2,45.4,33.2L45.4,33.2z M70.6,24.3c0.1,0.1,0.2,0.3,0.3,0.4
		c1.6,0,3.1,0,4.7,0c3.2-0.1,5.6-1.9,6.5-5c0.7-2.5-0.3-4.4-3-4.8c-1.8-0.3-3.7-0.3-5.6-0.5c-1.1-0.1-1.5,0.3-1.3,1.4
		c0.3,0.1,0.6,0.2,1.1,0.3c-0.4,2.2-0.8,4.3-1.2,6.4c-0.1,0.2-0.3,0.4-0.5,0.6C71.3,23.6,70.9,23.9,70.6,24.3L70.6,24.3z M60.5,17.3
		c0.2,2.2,0.3,4.4,0.5,6.6c0,0.2-0.2,0.6-0.3,0.7c-1,0.4-0.5,1-0.3,1.6c0.8-0.2,1.6-0.4,2.4-0.5c1.2-0.1,1.3-0.7,1-1.3
		c-0.5-0.3-1-0.5-1-0.7c-0.2-1.6-0.2-3.2-0.3-4.8c0.1,0,0.2,0,0.3,0c0.8,1.6,1.6,3.3,2.4,4.9s0.7,1.6,2.5,1c0.2-2.4,0.4-4.8,0.5-7.2
		c0.1-1,0.3-1.7,1.5-1.7c0-0.5,0.1-0.9,0.1-1.4c-1.5,0.1-2.9,0.2-4.3,0.4V16c0.5,0.4,1.1,0.6,1.1,0.9c0,1.1-0.1,2.1-0.2,3.5
		c-0.9-1.7-1.6-3.2-2.3-4.5c-0.2-0.3-0.6-0.6-0.8-0.6c-1.2,0.2-2.5,0.4-3.8,0.7c0,0.5,0,0.9,0.1,1.4h0.9V17.3z M121.7,70.1
		c2.1,0,4.2,0,6.2,0c1.4,0,2.2-0.6,2.2-1.7s-0.8-1.8-2.2-1.8c-4.2,0-8.3,0-12.4,0c-1.3,0-2.2,0.7-2.1,1.8c0,1,0.8,1.7,2.2,1.7
		C117.6,70.2,119.6,70.1,121.7,70.1L121.7,70.1z M121.7,77.1L121.7,77.1c2.2,0,4.3,0,6.5,0c1.1,0,1.8-0.7,1.9-1.6
		c0-0.9-0.7-1.7-1.7-1.8c-0.3,0-0.6,0-1,0c-3.9,0-7.8,0-11.8,0c-1.4,0-2.3,0.6-2.3,1.7s0.8,1.8,2.3,1.8
		C117.6,77.1,119.6,77.1,121.7,77.1L121.7,77.1z M101.6,25.5c-0.5-0.3-0.8-0.4-1.2-0.6c-0.7,0.8-1.4,1-2.2,0.2
		c0.6-0.7,1.2-1.3,1.7-1.9c2.6,1.1,2.9,1.5,2.7,4c0.5,0.1,0.9,0.3,1.5,0.5c0.6-1,1.1-2,1.7-3.2c-2.8-1.6-5.5-3.1-8.2-4.7
		c-0.4,0.5-0.7,0.9-1,1.3c1,0.4,0.9,0.9,0.3,1.5c-1.1,1.3-2.1,2.7-3.2,4c-0.2,0.3-0.7,0.7-1,0.6c-0.9-0.1-1.1,0.4-1.4,1.1
		c1.3,0.6,2.6,1.2,3.8,1.8c0.3-0.4,0.6-0.7,0.7-0.9c-0.1-0.5-0.4-1-0.3-1.2c0.4-0.6,0.9-1.1,1.4-1.6c0.1-0.1,0.5,0.1,0.5,0.2
		c0.1,0.4,0.1,0.9,0.2,1.4c0.3,0.7,0.7,0.7,1.3,0C99.8,27.4,100.7,26.5,101.6,25.5L101.6,25.5z M22.3,77.1L22.3,77.1
		c2.1,0,4.2,0,6.2,0c1.3,0,2.2-0.7,2.1-1.8c0-1-0.9-1.7-2.2-1.7c-4.1,0-8.2,0-12.4,0c-1.3,0-2,0.7-2,1.7c0,1.1,0.8,1.8,2.1,1.8
		C18.2,77.2,20.3,77.1,22.3,77.1z M52.1,27.4c0.3-0.8,0.4-1.5,0.8-1.7c0.7-0.5,1.5-0.7,2.3-0.9c0.2-0.1,0.6,0.2,0.8,0.4
		c0.1,0.2,0.1,0.7,0,0.8c-0.9,0.5-0.5,1.1-0.2,1.7c1.2-0.4,2.5-0.8,3.9-1.3c-0.5-0.8-1-1.5-1.5-2.2c-1.2-1.9-2.2-3.9-3.4-5.8
		c-0.2-0.4-0.8-0.9-1.1-0.9c-0.8,0.2-1.8,0.2-2,1.5c-0.2,2.5-0.6,5.1-0.9,7.6c-0.1,0.5,0,1.3-0.3,1.6c-0.8,0.7-0.4,1.2,0.1,1.8
		c1.1-0.5,2.1-1,3.1-1.5C53.6,27.7,53.5,26.9,52.1,27.4z M86.5,26.7c0.5,0.2,0.9,0.3,1.3,0.4c0.8,0.2,1.8,0.8,2.5,0.6
		c1-0.3,0.3-1.5,0.6-2.3v-0.1c0.4-2,0.8-4.1,1.2-6.1c0.1-0.5,0-1.4-0.2-1.5c-0.8-0.4-1.7-1-2.6,0c-1.9,1.9-4,3.7-6,5.5
		c-0.3,0.3-0.7,0.8-1,0.8c-1,0-1.1,0.7-1.2,1.4c0.6,0.1,1.1,0.2,1.7,0.3c0.6,0.1,1.2,0.3,1.7,0.4c0.6-0.7,0.9-1.3-0.1-1.8
		c1-1.2,2.4-1.1,4.4,0.2c-0.3,0.3-0.6,1-0.8,1C86.9,25.2,86.9,26,86.5,26.7L86.5,26.7z M22.3,70.2L22.3,70.2c2.1,0,4.2,0,6.2,0
		c1.3,0,2.1-0.7,2.1-1.7s-0.8-1.8-2-1.8c-4.2,0-8.3,0-12.5,0c-1.2,0-2,0.8-2,1.8s0.8,1.7,2.1,1.7C18.2,70.2,20.2,70.2,22.3,70.2
		L22.3,70.2z M21.6,80.7L21.6,80.7c-1.7,0-3.4,0-5.1,0c-1.3,0-2.1,0.7-2.1,1.6c0,1.1,0.9,1.8,2.2,1.8c3.4,0,6.9,0,10.3,0
		c1.4,0,2.1-0.6,2.2-1.7c0-1.1-0.9-1.8-2.2-1.8C25.1,80.7,23.4,80.7,21.6,80.7z M122.4,84.2c1.7,0,3.4,0,5.1,0
		c1.3,0,2.1-0.6,2.1-1.6c0.1-1-0.8-1.8-2.1-1.9c-3.5,0-6.9,0-10.4,0c-1.2,0-2.1,0.8-2.1,1.7c0,1,0.9,1.8,2.1,1.8
		C118.9,84.2,120.6,84.2,122.4,84.2L122.4,84.2z M21.7,63.1L21.7,63.1c1.7,0,3.4,0,5,0c1.4,0,2.3-0.7,2.3-1.8c0-1-0.8-1.7-2.2-1.7
		c-3.4,0-6.9,0-10.3,0c-1.3,0-2.1,0.6-2.1,1.6c0,1.1,0.8,1.8,2.2,1.8C18.2,63.2,20,63.1,21.7,63.1z M122.6,59.7L122.6,59.7
		c-1.8,0-3.6,0-5.4,0c-1.2,0-2,0.7-2,1.6c0,1,0.8,1.8,2,1.8c3.6,0,7.1,0,10.7,0c1.2,0,2-0.8,1.9-1.8s-0.8-1.6-2-1.6
		C126,59.7,124.3,59.7,122.6,59.7L122.6,59.7z M107,27.6c-1.8,1.5-3.4,2.9-5.1,4.3c-0.2,0.2-0.6,0.3-0.7,0.2
		c-0.9-0.5-1.2,0.1-1.8,0.7c1.2,0.9,2.3,1.8,3.5,2.7c0.4-0.3,0.7-0.6,1.1-0.8c-0.1,0-0.2-0.1-0.3-0.2c0.1-0.4,0.1-0.9,0.3-1.1
		c1.6-1.2,3.2-2.4,4.8-3.6c0.2-0.2,0.8-0.3,1-0.1c0.8,0.7,1.2,0.1,1.9-0.4c-1.4-1.2-2.8-2.3-4.1-3.4c-0.4,0.3-0.8,0.6-1.1,0.9
		C106.6,27,106.8,27.3,107,27.6L107,27.6z"/>
	<path class="st0" d="M105.3,89.8c0.9,0,1.7,0,2.3,0c1.2,0,1.9,0.7,1.9,1.6s-0.7,1.6-1.9,1.6c-0.9,0-1.8,0.1-2.8,0s-1.6,0.3-2.2,1.1
		c-4.3,5.6-9.7,9.9-16.3,12.7c-3.6,1.5-7.4,2.5-11.4,2.8c-1.2,0.1-1.7,0.5-1.6,1.8c0.1,0.8,0.1,1.5,0,2.3c-0.1,0.9-0.6,1.5-1.5,1.5
		c-1,0-1.5-0.5-1.6-1.4s-0.1-1.8,0-2.6c0.1-1-0.3-1.4-1.3-1.5c-5.9-0.4-11.3-2.2-16.3-5.2c-4.4-2.7-8.3-5.9-11.4-10.2
		c-0.6-0.9-1.3-1.3-2.4-1.1c-0.9,0.1-1.8,0.1-2.8,0.1c-1.1,0-1.9-0.7-1.8-1.6c0-1.1,0.8-1.5,1.8-1.5c0.8,0,1.5,0,2.5,0
		c-0.2-0.6-0.4-1-0.6-1.4c-4.8-10.3-5.7-20.9-1-31.3C43.1,43.7,54.1,36,69.1,34.3c0.8-0.1,1.1-0.4,1.1-1.2c-0.1-1,0-2.1,0-3.1
		c0.1-1.1,0.7-1.8,1.6-1.7c1,0.1,1.5,0.7,1.5,1.7s0.1,1.9,0,2.9c-0.1,0.9,0.3,1.3,1.3,1.4c15.1,1.9,26,9.6,32.2,23.5
		c4.4,9.7,3.9,19.7-0.3,29.5C106.3,87.8,105.9,88.7,105.3,89.8L105.3,89.8z M71.9,98.4c0.6-0.3,1.2-0.5,1.8-0.9
		c6.4-4.3,12.8-8.6,19.2-12.9c0.4-0.2,0.9-0.2,1.3-0.4c0.7-0.4,1.6-0.7,2.1-1.3c0.6-0.7,0.2-1.6-0.2-2.3c-0.3-0.5-0.5-1.2-0.5-1.8
		c0-4.9-0.1-9.8,0-14.8c0-0.6,0.2-1.2,0.6-1.7c0.5-0.8,0.7-1.5,0.2-2.4c-0.4-0.8-1.1-1.2-2-1.2c-0.6,0-1.2-0.2-1.6-0.5
		c-6.3-4.3-12.6-8.7-18.8-13c-1.3-0.9-2.4-0.8-3.6,0C64,49.5,57.7,53.8,51.5,58c-0.5,0.4-1.2,0.6-1.8,0.7c-1.9,0.2-2.8,1.9-1.9,3.5
		c0.3,0.6,0.6,1.2,0.6,1.9c0,5,0,9.9,0,14.9c0,0.6-0.2,1.2-0.5,1.6c-0.5,0.8-0.6,1.6-0.2,2.4c0.4,0.8,1,1.2,2,1.3
		c0.5,0,1,0.1,1.3,0.4c6.4,4.3,12.8,8.6,19.2,12.9C70.7,97.9,71.3,98.1,71.9,98.4L71.9,98.4z M48.4,89.5c-1.3,0-2.3,0.9-2.3,2.2
		c0,1.2,1,2.3,2.2,2.3s2.3-1.1,2.3-2.3C50.7,90.5,49.7,89.6,48.4,89.5L48.4,89.5z M95.7,89.5c-1.3,0-2.3,0.9-2.3,2.2
		c0,1.2,1.1,2.3,2.3,2.3s2.3-1,2.3-2.2C98,90.6,97,89.6,95.7,89.5L95.7,89.5z M74.3,39.5c0-1.2-1.1-2.3-2.3-2.3
		c-1.2,0-2.2,1.1-2.2,2.4c0,1.2,1,2.2,2.2,2.2C73.2,41.8,74.3,40.7,74.3,39.5z M105.5,71.8c0-1.2-1-2.2-2.2-2.2
		c-1.3,0-2.3,0.9-2.3,2.2c0,1.3,1,2.3,2.3,2.2C104.5,73.9,105.5,72.9,105.5,71.8L105.5,71.8z M72.1,105.5c1.1,0,2.2-1.1,2.2-2.3
		c0-1.2-1-2.2-2.2-2.2c-1.3,0-2.3,1-2.2,2.3C69.8,104.5,70.9,105.5,72.1,105.5L72.1,105.5z M42.9,71.7c0-1.2-1-2.2-2.2-2.2
		s-2.3,1.1-2.3,2.3c0,1.2,1,2.1,2.3,2.1C41.9,73.9,43,72.9,42.9,71.7z"/>
	<path class="st0" d="M57.5,117.6c-0.4,0.8-0.6,1.8-1.9,1.2c-0.2-0.1-0.8,0.4-0.8,0.7c-0.3,1.6-0.5,3.1-0.4,4.9
		c1.7-1.4,3.4-2.7,5.2-4.2c-0.6-0.3-1-0.5-1.5-0.8c0.3-1.1,0.7-1.6,2-1.2c1.5,0.5,3.2,0.7,4.9,1.1c-0.2,0.9-0.4,1.7-1.7,1.7
		c-0.5,0-1,0.6-1.5,0.9c-2.5,2.1-5.1,4.2-7.6,6.4c-0.8,0.7-1.6,0.7-2.5,0.3s-1.9-0.8-2.9-1.2c0.3-1.7,0.5-3.3,0.8-5
		c-1.7,0.8-3.3,1.4-4.8,2.2c-0.8,0.4-1.4,0.3-2.1-0.1c-3.1-1.8-3.1-1.7-1.7-4.9c0.7-1.7,1.5-3.5,2.3-5.2c0.5-1,0.7-1.8-0.5-2.5
		c0.5-0.4,0.9-0.8,1.3-1.1c2.1,1.3,4.1,2.5,6.2,3.8c-0.5,0.7-0.7,1.6-1.9,1c-0.2-0.1-0.7,0.2-0.8,0.5c-0.7,1.8-1.2,3.5-2,5.6
		c1.6-0.8,3-1.4,4.2-2.1c0.9-0.5,1-2.5,0.2-3.4c0.9-1.4,0.8-1.4,2.4-0.7C54.1,116.3,55.8,116.9,57.5,117.6L57.5,117.6z"/>
	<path class="st0" d="M88,129.7c-0.4-1.2-0.2-1.9,1-2.2c0.4-0.1,1-0.6,0.9-0.9c-0.1-2.7-0.4-5.5-0.6-8.3c-0.8,0.2-1.3,0.3-1.9,0.4
		c-0.6-1.3-0.1-1.8,1.1-2.3c2.6-1.1,5-2.5,7.5-3.7c1.1-0.6,2.3-1.2,3.5-1.4c1.7-0.4,2.8,0.9,2.4,2.6c-0.2,0.6-0.5,1.2-0.8,1.7
		s-0.7,0.9-1.1,1.5c0.8-0.2,1.4-0.4,2.2-0.4c1.7-0.1,2.8,1,2.2,2.6c-0.4,1.2-1.1,2.5-2,3.4c-1.1,1.1-2.5,2-3.9,2.8
		C95.3,127.3,91.8,128.6,88,129.7L88,129.7z M94.9,125.1c1.8-0.9,3.6-1.3,4.4-3.1c0.2-0.4,0.2-1.2-0.1-1.6c-0.2-0.3-1-0.4-1.5-0.2
		c-1,0.3-2,0.9-2.9,1.4c-0.2,0.1-0.4,0.5-0.4,0.7C94.6,123.1,94.8,123.9,94.9,125.1L94.9,125.1z M94,119.6c0.7-0.3,1.3-0.5,1.7-0.9
		c0.7-0.6,1.5-1.2,2-2c0.2-0.3,0-1.1-0.3-1.5c-0.2-0.2-0.9-0.2-1.3-0.1c-0.9,0.4-1.8,0.9-2.8,1.4C93.6,117.6,93.8,118.5,94,119.6z"
		/>
	<path class="st0" d="M63.7,131.4c0.2-1.1,0.6-1.8,1.9-1.5c0.8,0.2,1.2-0.2,1.5-1c0.6-2,1.3-4,2-6c0.3-0.9,0.3-1.6-1-1.5
		c-0.1,0-0.3-0.1-0.4-0.1c0.2-1.7,0.2-1.5,1.7-1.6c3.9-0.2,7.7-0.5,11.6-0.9c0.8-0.1,1.2-0.1,1.5,0.7c0.4,0.9,0.9,1.8,1.4,2.8
		c-0.8,0.4-1.5,0.8-2.3,1.2c-2.1-3.1-5-1.6-7.7-1.7c-0.2,1-0.4,1.9-0.6,2.9c1.8,0.4,2.3,0,3.1-1.2c0.4-0.5,1.4-0.6,2.4-0.9
		c-0.3,1.9-0.4,3.5-0.7,5.1c0,0.2-0.4,0.4-0.7,0.5c-0.6,0.1-1.2,0.1-1.8,0.1c-0.2-1.3-1.5-2.1-2.7-1.5c-0.2,0.1-0.3,0.3-0.3,0.4
		c-0.2,0.6-0.3,1.2-0.4,1.7c-0.1,0.3-0.1,0.7-0.2,1c2.4,1,7.5-0.3,9.2-2.6c0.9-1.3,1.9-1.6,3.6-1.2c-1,1.7-1.9,3.4-2.9,5
		c-0.1,0.2-0.4,0.2-0.6,0.3c-5.7,0.9-11.4,1.1-17.2,0.3C63.9,131.5,63.8,131.5,63.7,131.4L63.7,131.4z"/>
	<path class="st0" d="M37.4,37.5c0.5,0.6,0.9,1.1,1.3,1.6c-1.5,2-2.9,3.8-4.5,5.8c-0.5-0.5-1-0.9-1.5-1.3c0.8-2,0.8-2-0.8-3.5
		c-1.9-1.7-3.8-3.4-5.8-5.1c-0.8,0.9-1.1,2.4-0.6,3.9s0.2,2.5-1.4,3.3c-0.8-1.7-1.7-3.4-2.4-5.2c-0.1-0.3,0.3-0.9,0.5-1.2
		c1.5-1.8,2.9-3.6,4.4-5.3c1.2-1.5,2.6-2.8,3.8-4.3c0.6-0.7,1.2-0.9,2-0.2c1,0.8,2.1,1.5,3.3,2.3c-0.3,0.4-0.5,0.8-0.7,1.2
		c-0.3,0.8-0.8,1-1.6,0.6c-1.1-0.5-2.2-0.4-3.2,0.2c-0.7,0.4-0.9,0.9-0.3,1.6c1.6,1.8,3.1,3.8,4.7,5.6
		C35.9,38.8,35.9,38.8,37.4,37.5L37.4,37.5z"/>
	<path class="st0" d="M112.9,39.9c-0.2,1.1-1.7,2.2-0.9,3.9c-0.4,0.2-0.8,0.3-1.3,0.5c-0.5-0.7-1.1-1.3-1.5-2
		c-0.2-0.3-0.1-0.8,0-1.1c0.5-1.1,1.1-2.2,1.5-3.2c0.1-0.3,0-0.6-0.1-1c-0.3,0-0.6,0.1-0.8,0.2c-0.4,0.2-0.7,0.4-1.1,0.6
		c-0.8,0.5-0.8,0.5-0.3,1.4c-0.2,0.1-0.4,0.2-0.6,0.4c-0.2,0.1-0.3,0.2-0.5,0.2c-1-1-2.1-2-3.1-3.1c0.4-0.5,0.8-1.1,1.7-0.4
		c0.2,0.1,0.6,0.1,0.8-0.1c1.9-1.1,3.7-2.3,5.6-3.5c-0.2-0.4-0.4-0.7-0.6-0.9c1.3-1.1,1.3-1.1,2.4,0.1c1.2,1.4,2.4,2.8,3.6,4.2
		c0.4,0.5,0.8,1.1,1.1,1.7c0.7,1.7-0.2,3.3-2,3.2C115.5,40.9,114.2,40.3,112.9,39.9L112.9,39.9z M112,35.9c-0.1,0.2-0.2,0.3-0.2,0.5
		c0.7,0.6,1.3,1.3,2.1,1.7c0.5,0.2,1.2,0,1.9,0c-0.1-0.5,0-1.2-0.3-1.6c-0.3-0.6-0.9-1.1-1.4-1.7C113.4,35.2,112.7,35.6,112,35.9z"
		/>
	<path class="st0" d="M45.5,33.2c-1.2,1-2.3,1.8-3.5,2.8c-0.3-0.4-0.5-0.7-0.8-1.1c0.9-0.7,0.5-1.4,0-2.1c-0.8-1.3-1.6-2.6-2.4-3.9
		c-0.4-0.7-0.8-1.2-1.7-0.3c-0.3-0.5-0.6-1-1-1.7c2.4-1.5,4.7-3.1,7.2-4.5c0.9-0.5,2-0.4,2.8,0.4s1,1.8,0.5,2.9
		c-0.3,0.7-0.8,1.4-1.2,2.2c1.3,0.3,2.3,1.8,4.1,1.2c0.2,0.4,0.3,0.8,0.5,1.2c-0.7,0.4-1.4,0.9-2.1,1.2c-0.3,0.1-0.8,0-1.1-0.1
		c-1.1-0.5-2.2-1.1-3.3-1.7c-0.2-0.1-0.6,0-0.9,0c0,0.3,0,0.6,0.1,0.8c0.1,0.4,0.4,0.7,0.6,1.1c0.3,0.7,0.7,1,1.4,0.3
		C45,32.4,45.2,32.7,45.5,33.2L45.5,33.2z M41.7,28.7c0.8-0.6,1.6-1.1,2.1-1.8c0.3-0.4,0.1-1.1,0.2-1.7c-0.5,0-1.1-0.2-1.5,0
		c-0.7,0.3-1.3,0.8-1.9,1.2C40.9,27.1,41.2,27.8,41.7,28.7L41.7,28.7z"/>
	<path class="st0" d="M70.6,24.3c0.4-0.4,0.7-0.7,1.1-1.1c0.2-0.2,0.4-0.4,0.5-0.6c0.4-2.1,0.8-4.2,1.2-6.4
		c-0.4-0.1-0.7-0.3-1.1-0.3c-0.2-1.1,0.2-1.5,1.3-1.4c1.9,0.2,3.8,0.2,5.6,0.5c2.6,0.4,3.7,2.3,3,4.8c-0.9,3.1-3.3,4.9-6.5,5
		c-1.6,0-3.1,0-4.7,0C70.8,24.6,70.7,24.5,70.6,24.3L70.6,24.3z M75.9,16.4c-0.5,2.2-1,4.3-1.5,6.5c2.3,0.4,3.7-0.5,4.5-2.7
		C79.9,17.5,78.9,16.2,75.9,16.4L75.9,16.4z"/>
	<path class="st0" d="M60.5,17.3h-1.2c0-0.5,0-0.9-0.1-1.4c1.3-0.2,2.5-0.5,3.8-0.7c0.3,0,0.7,0.3,0.8,0.6c0.8,1.4,1.5,2.8,2.3,4.6
		c0.1-1.4,0.2-2.4,0.2-3.5c0-0.3-0.6-0.5-1.1-0.9v-1.1c1.4-0.1,2.8-0.2,4.3-0.4c0,0.5-0.1,0.9-0.1,1.4c-1.2,0-1.4,0.7-1.5,1.7
		c-0.1,2.4-0.3,4.8-0.5,7.2c-1.8,0.6-1.7,0.6-2.5-1c-0.8-1.7-1.6-3.3-2.4-4.9c-0.1,0-0.2,0-0.3,0.1c0.1,1.6,0.1,3.2,0.3,4.8
		c0,0.2,0.5,0.4,1,0.7c0.3,0.7,0.2,1.2-1,1.3c-0.8,0.1-1.5,0.3-2.4,0.5c-0.1-0.7-0.7-1.3,0.3-1.6c0.2-0.1,0.3-0.5,0.3-0.7
		C60.8,21.8,60.7,19.6,60.5,17.3z"/>
	<path class="st0" d="M121.7,70.1c-2.1,0-4.2,0-6.2,0c-1.4,0-2.2-0.6-2.2-1.7c0-1,0.8-1.7,2.1-1.8c4.2,0,8.3,0,12.4,0
		c1.4,0,2.2,0.7,2.2,1.8c0,1.1-0.8,1.7-2.2,1.7C125.9,70.1,123.8,70.1,121.7,70.1L121.7,70.1z"/>
	<path class="st0" d="M121.7,77.2c-2,0-4.1,0-6.1,0c-1.5,0-2.3-0.7-2.3-1.8c0-1.1,0.9-1.7,2.3-1.7c3.9,0,7.8,0,11.8,0
		c0.3,0,0.6,0,1,0c1,0.1,1.8,0.9,1.7,1.8c0,0.9-0.8,1.6-1.9,1.6C126,77.2,123.8,77.1,121.7,77.2L121.7,77.2L121.7,77.2z"/>
	<path class="st0" d="M101.6,25.5c-0.9,1-1.8,1.8-2.6,2.7c-0.6,0.7-1,0.6-1.3,0c-0.1-0.5-0.1-0.9-0.2-1.4c0-0.1-0.4-0.3-0.5-0.2
		c-0.5,0.5-1.1,1-1.4,1.6c-0.1,0.2,0.2,0.7,0.3,1.2c-0.2,0.2-0.4,0.5-0.7,0.9c-1.3-0.6-2.5-1.2-3.8-1.8c0.3-0.7,0.4-1.3,1.4-1.1
		c0.3,0,0.8-0.3,1-0.7c1.1-1.3,2.1-2.7,3.2-4c0.6-0.7,0.7-1.2-0.3-1.6c0.3-0.4,0.6-0.8,1-1.3c2.7,1.5,5.4,3.1,8.2,4.7
		c-0.6,1.2-1.1,2.1-1.7,3.2c-0.6-0.2-1-0.3-1.5-0.5c0.2-2.5-0.1-2.9-2.7-4c-0.6,0.6-1.1,1.3-1.7,1.9c0.8,0.9,1.5,0.7,2.2-0.2
		C100.8,25.1,101.1,25.3,101.6,25.5L101.6,25.5z"/>
	<path class="st0" d="M22.3,77.1c-2,0-4.1,0-6.1,0c-1.3,0-2.1-0.7-2.1-1.8c0-1,0.8-1.7,2-1.7c4.1,0,8.2,0,12.4,0
		c1.3,0,2.2,0.7,2.2,1.7s-0.8,1.7-2.1,1.8C26.5,77.1,24.4,77.1,22.3,77.1L22.3,77.1z"/>
	<path class="st0" d="M52.1,27.4c1.5-0.5,1.5,0.3,1.6,1.1c-1,0.5-2,1-3.1,1.5c-0.4-0.6-0.8-1.1-0.1-1.8c0.3-0.3,0.3-1,0.3-1.6
		c0.3-2.5,0.7-5.1,0.9-7.6c0.1-1.3,1.2-1.3,2-1.5c0.3-0.1,0.9,0.5,1.1,0.9c1.2,1.9,2.3,3.8,3.4,5.8c0.4,0.7,0.9,1.4,1.5,2.2
		c-1.5,0.5-2.7,0.9-3.9,1.3C55.5,27.1,55,26.5,56,26c0.1-0.1,0.2-0.6,0-0.8c-0.2-0.2-0.6-0.5-0.8-0.4c-0.8,0.2-1.6,0.5-2.3,0.9
		C52.5,26,52.4,26.6,52.1,27.4z M53.1,20.7c-0.2,1.2-0.3,2.1-0.4,3.1c0.8-0.3,1.3-0.5,1.9-0.8C54.1,22.3,53.7,21.7,53.1,20.7z"/>
	<path class="st0" d="M86.5,26.7c0.3-0.7,0.4-1.4,1.4-1.2c0.2,0,0.5-0.6,0.8-1c-2-1.3-3.4-1.3-4.4-0.2c1,0.5,0.7,1.1,0.1,1.8
		c-0.5-0.1-1.1-0.3-1.7-0.4c-0.5-0.1-1.1-0.2-1.7-0.3c0.2-0.8,0.2-1.4,1.2-1.4c0.3,0,0.7-0.5,1-0.8c2-1.8,4-3.6,6-5.5
		c0.9-0.9,1.8-0.4,2.6,0c0.3,0.2,0.3,1,0.2,1.5c-0.3,2-0.8,4.1-1.2,6.1v0.1c-0.3,0.8,0.4,2-0.6,2.3c-0.7,0.2-1.6-0.4-2.5-0.6
		C87.4,27.1,87,26.9,86.5,26.7L86.5,26.7z M88.8,22.5c0.1-0.9,0.2-1.6,0.3-2.7c-0.9,0.8-1.6,1.4-2.4,2.1
		C87.6,22.1,88.1,22.3,88.8,22.5z"/>
	<path class="st0" d="M22.3,70.2c-2,0-4.1,0-6.1,0c-1.3,0-2-0.6-2.1-1.7c0-1,0.8-1.8,2-1.8c4.2,0,8.3,0,12.5,0c1.2,0,2,0.8,2,1.8
		s-0.8,1.7-2.1,1.7C26.4,70.2,24.4,70.2,22.3,70.2L22.3,70.2L22.3,70.2z"/>
	<path class="st0" d="M21.6,80.7c1.7,0,3.4,0,5.1,0c1.4,0,2.2,0.7,2.2,1.8c0,1.1-0.8,1.7-2.2,1.7c-3.4,0-6.9,0-10.3,0
		c-1.3,0-2.2-0.8-2.2-1.8c0-0.9,0.9-1.6,2.1-1.6C18.2,80.7,19.9,80.8,21.6,80.7L21.6,80.7z"/>
	<path class="st0" d="M122.4,84.2c-1.7,0-3.4,0-5.1,0c-1.3,0-2.1-0.7-2.1-1.8c0-0.9,0.9-1.7,2.1-1.7c3.5,0,6.9,0,10.4,0
		c1.2,0,2.1,0.9,2.1,1.9c-0.1,1-0.8,1.6-2.1,1.6C125.8,84.2,124.1,84.2,122.4,84.2L122.4,84.2z"/>
	<path class="st0" d="M21.7,63.1c-1.7,0-3.4,0-5.1,0c-1.4,0-2.2-0.7-2.2-1.8c0-1,0.8-1.6,2.1-1.6c3.4,0,6.9,0,10.3,0
		c1.4,0,2.2,0.6,2.2,1.7c0,1.1-0.8,1.8-2.3,1.8C25,63.1,23.3,63.1,21.7,63.1L21.7,63.1z"/>
	<path class="st0" d="M122.6,59.7c1.7,0,3.4,0,5.2,0c1.2,0,2,0.6,2,1.6c0.1,1-0.7,1.8-1.9,1.8c-3.6,0-7.1,0-10.7,0
		c-1.2,0-2-0.8-2-1.8c0-0.9,0.8-1.6,2-1.6C119,59.7,120.8,59.7,122.6,59.7L122.6,59.7z"/>
	<path class="st0" d="M107,27.6c-0.3-0.3-0.5-0.6-0.8-0.9c0.4-0.3,0.7-0.6,1.1-0.9c1.4,1.2,2.7,2.3,4.1,3.4
		c-0.7,0.6-1.1,1.1-1.9,0.4c-0.2-0.1-0.7,0-1,0.1c-1.6,1.2-3.2,2.3-4.8,3.6c-0.2,0.2-0.2,0.8-0.3,1.1c0.1,0.1,0.2,0.1,0.3,0.2
		c-0.3,0.3-0.7,0.5-1.1,0.8c-1.2-0.9-2.3-1.7-3.5-2.7c0.5-0.6,0.9-1.2,1.8-0.7c0.2,0.1,0.5-0.1,0.7-0.2
		C103.6,30.5,105.2,29.1,107,27.6L107,27.6z"/>
	<path d="M71.9,98.4c-0.6-0.3-1.2-0.5-1.7-0.8C63.8,93.3,57.4,89,51,84.7c-0.4-0.2-0.9-0.3-1.3-0.4c-0.9-0.1-1.6-0.4-2-1.3
		c-0.4-0.8-0.3-1.6,0.2-2.4c0.3-0.5,0.5-1.1,0.5-1.6c0-5,0-9.9,0-14.9c0-0.6-0.3-1.3-0.6-1.9c-1-1.6,0-3.4,1.9-3.5
		c0.6,0,1.3-0.3,1.8-0.7c6.2-4.2,12.5-8.5,18.7-12.8c1.2-0.9,2.3-0.9,3.6,0c6.3,4.4,12.6,8.7,18.8,13c0.4,0.3,1.1,0.5,1.6,0.5
		c0.9,0.1,1.6,0.4,2,1.2c0.5,0.8,0.3,1.6-0.2,2.4c-0.3,0.5-0.6,1.1-0.6,1.7c0,4.9,0,9.8,0,14.8c0,0.6,0.2,1.2,0.5,1.8
		c0.4,0.8,0.8,1.6,0.2,2.3c-0.5,0.6-1.4,1-2.1,1.3c-0.4,0.2-0.9,0.2-1.3,0.4c-6.4,4.3-12.8,8.6-19.2,12.9
		C73.2,97.9,72.5,98.1,71.9,98.4L71.9,98.4z M72,59c-0.5,0.4-1,0.7-1.4,1c-2.8,3.1-5.7,6.2-8.5,9.3c-0.8,0.8-0.8,2.7,0,3.5
		C65,76,68,79.2,71,82.4c0.8,0.8,1.7,0.8,2.4,0c2.9-3.2,5.8-6.3,8.6-9.5c0.7-0.7,0.6-2.8,0-3.5c-2.9-3.2-5.8-6.4-8.7-9.6
		C72.9,59.6,72.5,59.4,72,59L72,59z M67.7,83c0-0.2,0-0.3,0-0.3c-2.7-2.9-5.4-5.8-8.1-8.7c-0.6-0.6-1-0.4-1.5,0.2
		c-1.8,1.9-3.5,3.8-5.3,5.7c-0.9,1-0.8,2,0.3,2.8c1.8,1.2,3.7,2.4,5.5,3.7c0.7,0.5,1.2,0.4,1.8-0.1c1.9-1.7,4.2-2.8,6.8-3.1
		C67.3,83.2,67.5,83.1,67.7,83L67.7,83z M61.5,88.6c3.4,2.3,6.7,4.4,10,6.5c0.3,0.2,0.9,0,1.3-0.2c1.8-1.1,3.5-2.3,5.2-3.4
		c1.4-1,2.9-1.9,4.5-3c-2.1-1.9-4.5-2.9-7.2-2.9c-0.2,0-0.6,0.4-0.7,0.8c-0.4,1.4-1.4,2.3-2.6,2.3s-2.1-0.9-2.5-2.3
		c-0.1-0.3-0.5-0.8-0.8-0.8C66,85.7,63.7,86.6,61.5,88.6z M76.2,83c0.4,0.1,0.6,0.2,0.7,0.2c2.7,0.2,4.9,1.3,6.9,3.1
		c0.6,0.6,1.2,0.5,1.8,0.1c1.8-1.2,3.6-2.4,5.4-3.6c1.1-0.8,1.2-1.8,0.3-2.8c-1.7-1.9-3.5-3.7-5.2-5.7c-0.7-0.8-1.2-0.7-1.8,0
		c-2.1,2.3-4.2,4.6-6.4,6.8C77.4,81.8,76.9,82.3,76.2,83L76.2,83z M61.7,54.3c2.1,2.1,4.4,2.9,7.1,2.8c0.2,0,0.6-0.4,0.7-0.7
		c0.5-1.7,1.3-2.5,2.6-2.5c1.3,0,2.2,0.8,2.6,2.5c0.1,0.3,0.5,0.6,0.8,0.7c0.5,0.1,1,0,1.6-0.1c2-0.3,3.8-1.1,5.2-2.5
		c-0.1-0.2-0.1-0.3-0.2-0.3c-3.2-2.1-6.3-4.2-9.5-6.3c-0.3-0.2-1.1-0.1-1.5,0.2c-2.1,1.3-4.2,2.7-6.2,4.1
		C63.8,52.8,62.8,53.5,61.7,54.3z M67.6,59.6c-3.1-0.3-5.5-1.3-7.5-3.2c-0.2-0.2-0.9-0.2-1.2,0c-2,1.3-4,2.6-5.9,3.9
		c-1.2,0.8-1.2,1.5-0.2,2.6c1.5,1.7,3.1,3.3,4.6,5c1.1,1.2,1.5,1.2,2.6,0c1.9-2,3.7-4.1,5.6-6.1C66.1,61.3,66.8,60.6,67.6,59.6
		L67.6,59.6z M76.7,59.7c0.1,0.2,0.2,0.4,0.3,0.5c2.5,2.7,5,5.4,7.5,8.1c0.7,0.8,1.3,0.8,2.1,0c1.5-1.7,3-3.3,4.6-4.9
		c1.2-1.3,1.1-2.1-0.3-3.1c-1.8-1.2-3.7-2.5-5.4-3.7c-0.7-0.5-1-0.4-1.7,0.1c-1.1,0.8-2.2,1.5-3.5,2.1
		C79.1,59.2,77.9,59.3,76.7,59.7L76.7,59.7z M51.3,65.3v12.4c1.7-1.9,3.2-3.4,4.5-5.1c0.4-0.5,0.3-1.8-0.1-2.3
		C54.5,68.6,52.9,67.1,51.3,65.3L51.3,65.3z M92.7,65.3c-1.5,1.6-2.8,3-4,4.4c-1,1.1-1.1,2.5-0.1,3.6c0.8,0.9,1.6,1.8,2.4,2.6
		c0.5,0.5,1,1.1,1.7,1.8V65.3z"/>
	<path d="M48.4,89.6c1.3,0,2.3,1,2.3,2.3c0,1.2-1.2,2.3-2.3,2.3c-1.2,0-2.3-1.1-2.2-2.3C46.1,90.5,47.1,89.5,48.4,89.6L48.4,89.6z"
		/>
	<path d="M95.7,89.6c1.3,0,2.3,1,2.3,2.3c0,1.2-1.1,2.3-2.3,2.3s-2.3-1.1-2.3-2.3C93.4,90.5,94.4,89.5,95.7,89.6L95.7,89.6z"/>
	<path d="M74.3,39.5c0,1.2-1.1,2.3-2.3,2.3c-1.2,0-2.2-1-2.2-2.2c0-1.3,1-2.3,2.2-2.4C73.2,37.2,74.3,38.3,74.3,39.5z"/>
	<path d="M105.6,71.8c0,1.1-1.1,2.2-2.2,2.2c-1.3,0-2.3-0.9-2.3-2.2c0-1.3,1-2.2,2.3-2.2C104.6,69.6,105.6,70.6,105.6,71.8
		L105.6,71.8z"/>
	<path d="M72.1,105.5c-1.2,0-2.2-1-2.3-2.2c-0.1-1.3,1-2.3,2.2-2.3s2.2,1,2.2,2.2C74.2,104.4,73.2,105.5,72.1,105.5L72.1,105.5z"/>
	<path d="M42.9,71.7c0,1.2-1,2.2-2.2,2.2s-2.2-0.9-2.3-2.1c0-1.2,1-2.3,2.3-2.3C41.9,69.5,42.9,70.5,42.9,71.7z"/>
	<path d="M94.9,125.1c-0.2-1.1-0.3-2-0.4-2.8c0-0.2,0.2-0.6,0.4-0.7c0.9-0.5,1.9-1,2.9-1.4c0.4-0.2,1.3-0.1,1.5,0.2
		c0.3,0.4,0.3,1.2,0.1,1.6C98.5,123.7,96.7,124.1,94.9,125.1L94.9,125.1z"/>
	<path d="M94,119.6c-0.2-1.1-0.4-2.1-0.6-3.1c0.9-0.5,1.8-1,2.8-1.4c0.4-0.2,1.1-0.1,1.3,0.1c0.3,0.4,0.5,1.2,0.3,1.5
		c-0.5,0.8-1.2,1.4-2,2C95.3,119.1,94.7,119.3,94,119.6z"/>
	<path d="M112,35.9c0.7-0.4,1.4-0.7,2.1-1.1c0.5,0.6,1,1.1,1.4,1.7c0.2,0.4,0.2,1.1,0.3,1.6c-0.6,0-1.4,0.2-1.9,0
		c-0.8-0.4-1.4-1.1-2.1-1.7C111.9,36.3,112,36.1,112,35.9z"/>
	<path d="M41.7,28.7c-0.4-0.8-0.8-1.5-1.2-2.3c0.7-0.4,1.3-1,1.9-1.2c0.4-0.2,1,0,1.5,0c0,0.6,0.1,1.3-0.2,1.7
		C43.2,27.6,42.4,28,41.7,28.7L41.7,28.7z"/>
	<path d="M75.9,16.4c3-0.2,4,1.1,3,3.8c-0.8,2.2-2.2,3.1-4.5,2.7C74.9,20.7,75.4,18.6,75.9,16.4L75.9,16.4z"/>
	<path d="M53.1,20.7c0.6,0.9,1,1.6,1.5,2.3c-0.7,0.2-1.2,0.5-1.9,0.8C52.8,22.8,53,21.9,53.1,20.7z"/>
	<path d="M88.8,22.5c-0.7-0.2-1.3-0.4-2-0.6c0.8-0.7,1.5-1.3,2.4-2.1C89,20.9,88.9,21.6,88.8,22.5z"/>
	<path class="st0" d="M72,59c0.5,0.3,0.9,0.5,1.2,0.9c2.9,3.2,5.8,6.4,8.7,9.6c0.7,0.7,0.7,2.8,0,3.5c-2.9,3.2-5.7,6.3-8.6,9.5
		c-0.8,0.8-1.6,0.8-2.4,0c-3-3.2-5.9-6.4-8.9-9.6c-0.8-0.8-0.7-2.7,0-3.5c2.8-3.1,5.7-6.2,8.5-9.3C71,59.7,71.5,59.4,72,59L72,59z"
		/>
	<path class="st0" d="M67.7,83c-0.2,0.1-0.4,0.2-0.6,0.2c-2.6,0.2-4.8,1.3-6.8,3.1c-0.6,0.6-1.1,0.6-1.8,0.1
		c-1.8-1.2-3.7-2.4-5.5-3.7C51.9,82,51.8,81,52.8,80c1.8-1.9,3.5-3.8,5.3-5.7c0.5-0.5,0.9-0.8,1.5-0.2c2.7,2.9,5.4,5.8,8.1,8.7
		C67.7,82.8,67.7,82.9,67.7,83L67.7,83z"/>
	<path class="st0" d="M61.5,88.5c2.2-1.9,4.5-2.9,7.2-2.9c0.3,0,0.7,0.4,0.8,0.8c0.4,1.4,1.3,2.3,2.5,2.3c1.1,0,2.1-1,2.6-2.3
		c0.1-0.3,0.4-0.8,0.7-0.8c2.7,0,5,1,7.2,2.9c-1.6,1-3,2-4.5,3c-1.7,1.1-3.5,2.3-5.2,3.4c-0.3,0.2-1,0.3-1.3,0.2
		C68.2,93,64.9,90.8,61.5,88.5z"/>
	<path class="st0" d="M76.2,83c0.6-0.7,1.1-1.3,1.7-1.8c2.1-2.3,4.3-4.5,6.4-6.8c0.6-0.7,1.1-0.8,1.8,0c1.7,1.9,3.4,3.8,5.2,5.7
		c0.9,1,0.9,2-0.3,2.8c-1.8,1.2-3.6,2.4-5.4,3.6c-0.6,0.4-1.1,0.5-1.8-0.1c-1.9-1.8-4.2-2.9-6.9-3.1C76.8,83.2,76.6,83.2,76.2,83
		L76.2,83z"/>
	<path class="st0" d="M61.7,54.3c1.2-0.8,2.2-1.5,3.2-2.2c2.1-1.4,4.1-2.8,6.2-4.1c0.4-0.2,1.1-0.4,1.5-0.2c3.2,2,6.3,4.2,9.5,6.3
		c0.1,0,0.1,0.1,0.2,0.3c-1.5,1.4-3.2,2.2-5.2,2.5C76.5,57,76,57.1,75.5,57c-0.3-0.1-0.8-0.4-0.8-0.7c-0.4-1.7-1.2-2.5-2.6-2.5
		c-1.3,0-2.2,0.8-2.6,2.5c-0.1,0.3-0.4,0.7-0.7,0.7C66.1,57.1,63.8,56.3,61.7,54.3z"/>
	<path class="st0" d="M67.6,59.6c-0.8,0.9-1.4,1.6-2.1,2.3c-1.8,2-3.7,4.1-5.6,6.1c-1.1,1.2-1.5,1.2-2.6,0c-1.5-1.7-3.1-3.3-4.6-5
		c-1-1.1-1-1.8,0.2-2.6c1.9-1.3,3.9-2.7,5.9-3.9c0.3-0.2,1-0.2,1.2,0C62.1,58.3,64.5,59.3,67.6,59.6L67.6,59.6z"/>
	<path class="st0" d="M76.7,59.7c1.2-0.3,2.4-0.5,3.5-1c1.2-0.6,2.4-1.3,3.5-2.1c0.6-0.5,1-0.5,1.7-0.1c1.8,1.3,3.6,2.5,5.4,3.7
		c1.4,1,1.5,1.8,0.3,3.1c-1.5,1.6-3.1,3.2-4.6,4.9c-0.7,0.8-1.4,0.8-2.1,0c-2.5-2.7-5-5.4-7.5-8.1C76.9,60,76.8,59.8,76.7,59.7
		L76.7,59.7z"/>
	<path class="st0" d="M51.3,65.3c1.6,1.8,3.2,3.3,4.4,5c0.4,0.5,0.5,1.8,0.1,2.3c-1.3,1.7-2.9,3.3-4.5,5.1V65.3L51.3,65.3z"/>
	<path class="st0" d="M92.7,65.3v12.4C92,77,91.5,76.5,91,75.9c-0.8-0.9-1.6-1.7-2.4-2.6c-1-1.1-1-2.5,0.1-3.6
		C90,68.3,91.2,66.9,92.7,65.3z"/>
</g>
</svg>
