<?xml version="1.0" encoding="UTF-8"?>
<svg id="Livello_2" data-name="Livello 2" xmlns="http://www.w3.org/2000/svg" viewBox="0 0 423.49 412.38">
  <defs>
    <style>
      .cls-1 {
        fill: #fefefe;
      }

      .cls-1, .cls-2, .cls-3, .cls-4, .cls-5, .cls-6, .cls-7, .cls-8, .cls-9, .cls-10, .cls-11, .cls-12, .cls-13, .cls-14, .cls-15, .cls-16, .cls-17, .cls-18, .cls-19, .cls-20, .cls-21, .cls-22, .cls-23, .cls-24, .cls-25, .cls-26, .cls-27, .cls-28, .cls-29, .cls-30, .cls-31, .cls-32, .cls-33, .cls-34 {
        stroke-width: 0px;
      }

      .cls-2 {
        fill: #fbfaf7;
      }

      .cls-3 {
        fill: #8e3915;
      }

      .cls-4 {
        fill: #b15622;
      }

      .cls-5 {
        fill: #963e1a;
      }

      .cls-6 {
        fill: #b2571c;
      }

      .cls-7 {
        fill: #cf7324;
      }

      .cls-8 {
        fill: #d8a007;
      }

      .cls-9 {
        fill: #ce7327;
      }

      .cls-10 {
        fill: #943c18;
      }

      .cls-11 {
        fill: #b35b24;
      }

      .cls-12 {
        fill: #fecc34;
      }

      .cls-13 {
        fill: #5a2e17;
      }

      .cls-14 {
        fill: #d5b2a6;
      }

      .cls-15 {
        fill: #f7a33c;
      }

      .cls-16 {
        fill: #e0872d;
      }

      .cls-17 {
        fill: #f8c110;
      }

      .cls-18 {
        fill: #d99f03;
      }

      .cls-19 {
        fill: #a7a7aa;
      }

      .cls-20 {
        fill: #fce80e;
      }

      .cls-21 {
        fill: #945d09;
      }

      .cls-22 {
        fill: #d7a008;
      }

      .cls-23 {
        fill: #d9a003;
      }

      .cls-24 {
        fill: #904019;
      }

      .cls-25 {
        fill: #4a240f;
      }

      .cls-26 {
        fill: #fec308;
      }

      .cls-27 {
        fill: #562a14;
      }

      .cls-28 {
        fill: #a9a9a9;
      }

      .cls-29 {
        fill: #d69f00;
      }

      .cls-30 {
        fill: #6b2a05;
      }

      .cls-31 {
        fill: #cf7424;
      }

      .cls-32 {
        fill: #d5b3a6;
      }

      .cls-33 {
        fill: #fdfdfd;
      }

      .cls-34 {
        fill: #a6a6a9;
      }
    </style>
  </defs>
  <g id="Livello_1-2" data-name="Livello 1">
    <g>
      <path class="cls-25" d="m323.93,271.75c.54,16.02.42,29.3-2.22,42.41-.85,4.2-1.57,8.74-6.94,9.9-1.19.26-1.48,1.32-1.58,2.29-.13,1.34,1.05,1.44,1.98,1.76,4.24,1.46,8.41,3.15,12.71,4.41,15.3,4.5,16.08,17.5,13.27,27.37-3.03,10.61-7.8,20.48-14.08,29.61-4.52,6.59-10.64,10.64-18.54,11.24-9.44.71-18.96,1-28.24-1.62-2.84-.8-5.34-.62-8,1.04-12.31,7.68-26.19,10.65-40.31,11.62-27.02,1.85-53.8-.77-80.17-6.94-16.6-3.88-31.25-11.34-42.1-24.96-1.88-2.36-3.96-2.44-6.57-2.31-9.04.44-10.19-.4-12.53-9.07-3.77-13.94-6.18-28.15-8.33-42.41-.48-3.17.99-5.17,3.7-6.27,3.54-1.43,7.1-2.92,10.79-3.82,3.55-.87,5.77-2.19,5.03-6.29-.17-.96.04-1.99.15-2.98.76-6.75-3.31-11.53-10.39-11.73-6.66-.2-13.28-.71-19.82-1.93-4.9-.91-9.36-8.52-7.82-13.1.67-2,2.55-2.46,4.29-3,6.65-2.06,13.29-4.18,19.98-6.12,2.67-.77,4.07-2.2,4.83-4.96,2.72-9.92,5.98-19.7,8.5-29.67,1.55-6.14,4.41-11.36,8.28-16.23,5.91-7.42,11.64-14.98,17.52-22.43,1.61-2.04,2.89-4.6,6.08-4.66.4,0,1.04-.31,1.17-.63,4.01-10.39,13.67-15.61,21.72-21.61,5.06-3.77,12.9-4.45,19.44-6.7,16.75-5.76,34.01-5.46,51.34-4.42,2.16.13,4.34.58,6.47.39,10.97-.96,20.49,3.22,29.67,8.39,5.5,3.1,10.36,7.76,16.18,9.72,5.68,1.91,10.27,5.17,15.33,7.9,11.87,6.41,17.66,16.96,21.17,29.44,5.45,19.34,7.7,39.07,8.03,56.37Z"/>
      <path class="cls-34" d="m209.11.24c8.46-1,16.12,1.17,22.88,5.76,15.61,10.59,17.03,29.13,3.66,42.59-4.83,4.86-10.34,8.9-16.01,12.7-7.21,4.84-12.44,10.94-13.53,19.94-.14,1.14.35,3.24-1.55,3.15-2.19-.1-1.41-2.24-1.49-3.58-.54-9.02,3.04-16.89,7.08-24.59,5.03-9.58,8.53-19.48,7.47-30.55-.43-4.54-1.4-8.88-3.83-12.77-4.49-7.19-13.86-9.59-19.93-5.25-2.63,1.88-3.62,4.08-2.4,7.28,1.48,3.87,3.09,7.77,3.95,11.8,1.43,6.69-2.11,11.27-8.62,11.89-6.53.62-11.93-3.98-12.02-10.25-.18-12.73,6.46-21.84,18.83-26.16,5.12-1.79,10.28-2.6,15.51-1.96Z"/>
      <path class="cls-19" d="m57.85,109.49c-.4,4.64-.61,9.3-1.25,13.9-1.12,7.92-.48,15.27,5.51,21.33.75.75,1.87,1.91.82,3.03-1.29,1.37-1.95-.44-2.8-.98-4.58-2.88-7.11-7.38-9.27-12.1-2.28-4.99-4.24-10.13-6.57-15.09-4.13-8.78-10.75-15.22-19.62-19.01-6.64-2.84-13.44-.39-17,5.39-2.72,4.42-1.68,7.92,3.08,10.01,2.58,1.14,5.3,1.98,7.83,3.22,3.49,1.71,6.05,4.5,5.84,8.52-.2,3.94-2.78,6.87-6.32,8.33-3.57,1.47-7.19.93-10.26-1.72-7.26-6.27-9.81-16.26-6.26-25.46,3.59-9.31,10.04-16.43,18.24-21.81,8.3-5.45,17.59-6.41,25.96-1.04,8.1,5.2,13.83,12.67,12.07,23.49Z"/>
      <path class="cls-28" d="m396.73,146.84c-5.03-.09-11.79-1.91-18.63-3.31-6.86-1.41-13.55-1.51-19.4,3.33-.79.66-2.05,1.86-2.99.54-.94-1.31.74-1.93,1.45-2.72,6.18-6.83,14.8-8.57,23.12-10.76,9.11-2.4,16.78-6.97,23.05-13.99,5.13-5.75,6.05-14.42,2.02-20.26-3.8-5.52-9.57-5.27-12.86.52-1.31,2.31-2.58,4.66-4.09,6.83-3.89,5.61-8.27,6.36-12.91,2.37-4.74-4.08-5.01-9.99-.66-14.4,6.73-6.81,17.37-8.3,27.23-2.78,9.86,5.52,17.04,13.91,20.44,24.78,4.92,15.75-9.25,30.41-25.77,29.84Z"/>
      <path class="cls-34" d="m219.07,113.35c.33,9.17-8.13,14.52-14.04,14.35-6.45-.19-13.69-5.58-13.71-14.8-.01-7.89,6.01-13.79,13.92-13.75,8.46.05,13.9,5.63,13.83,14.2Z"/>
      <path class="cls-34" d="m82.37,176.61c-6.97.07-12.54-5.37-12.49-12.2.04-6.72,5.78-12.57,12.3-12.55,6.45.02,12.52,5.62,12.6,11.64.12,7.91-4.73,13.02-12.41,13.1Z"/>
      <path class="cls-19" d="m349.97,164.5c.1,6.39-5.8,12.32-12.37,12.44-6.69.13-12.75-5.58-12.73-11.99.03-6.41,5.94-12.45,12.33-12.59,6.3-.14,12.67,5.92,12.77,12.15Z"/>
      <path class="cls-26" d="m276.78,184.77c9.93,2.5,17.94,8.18,25.21,15.11.74,2.56-.54,4.5-1.98,6.38-10.63,13.91-15.39,29.92-17.01,47.1-.59,6.27-1.67,12.49-2.06,18.8-.25,4.06-2.22,5.28-6.12,3.83-11-4.09-22.52-5.57-34.01-7.32-2.83-.43-5.64.61-8.42-.24-4.24-1.57-8.8-2.53-13.13-2.51-18.68.08-37.29-5.33-56.02-.73-.64.16-1.33.23-1.98.17-13.1-1.15-25.7,2.46-38.52,3.99-3.44.41-6.7,1.64-10.03,2.36-4.64.99-5.26-.64-5.31-4.23-.01-1-.03-1.99-.03-2.99,1.44-9.52,5.41-18.26,8.43-27.29.39-1.17,1.31-1.88,2.69-1.6,2.28,1.96,1.37,4.56,1.37,6.98,0,.76-.52,1.82.5,2.13.86.26,1.43-.65,1.95-1.29.42-.52.74-1.14.82-1.8,1.03-8.28,3.22-16.27,6.1-24.08.4-1.08.18-2.31.37-3.47,3.53-6.85,9.72-11.25,15.19-16.3.61-.56,1.55-.34,2.25.25,1.11,3.62-.68,6.85-1.55,10.15-1.23,4.67-2.21,9.38-3.04,14.12-.19,1.08-.65,2.63.76,3.03,1.57.45,2.24-1.04,2.8-2.27.27-.6.39-1.27.48-1.93,1.6-11.27,5.45-21.89,9.43-32.47,7.13-7.08,15.89-11.14,25.39-13.97,12.76-3.8,26.04-4.93,38.97-7.86.79-.18,1.65-.23,2.33-.79,6.4-.02,12.82-.4,19.15,1,.18,2.52-1.75,3.89-3.21,5.34-9.08,9.02-14.76,20-18.71,31.97-1.88,5.69-4.25,11.2-5.65,17.05-.55,2.31-.86,4.37,2.22,4.99,3.21.65,2.97-1.9,3.33-3.72,2.33-11.95,5.12-23.74,11.44-34.36,3.34-5.62,7.43-10.63,12.14-15.14,2.14-2.05,4.49-3.48,7.62-2.35,7.9.34,13.26,6.02,19.73,9.39,1.54,2.73-.51,4.44-1.97,6.06-9.18,10.18-14.47,22.18-17.02,35.51-1.08,5.61-.62,11.26-.44,16.9.05,1.42.32,3.44,2.24,3.26,1.46-.14,1.52-2.08,1.56-3.32.28-8.32.88-16.61,3.26-24.64,2.9-9.82,7.06-18.99,14.44-26.38,1.17-1.17,2.3-2.42,4.02-2.83Z"/>
      <path class="cls-15" d="m116.63,374.12c-2.96-.8-4.53-3.56-7.04-4.98-2.46-1.13-4-3.03-4.12-5.73-.41-9.25-.41-18.5,0-27.74.05-.99.45-1.93,1.24-2.63.26-.27.53-.55.79-.82,2.56,2.24,1.61,5.27,1.56,7.95-.11,6.52,1.51,12.51,4.62,18.16,4.03,7.31,10.75,9.78,18.5,9.44,7.11-.31,12.79-3.73,15.96-10.31,4.56-9.44,4.79-19.51,3.62-29.7,0-5.82-1.85-11.36-2.72-17.04.29-7.06.39-7.17,7.7-7.22,5.59-.04,11.18.05,16.76-.18,4.6.89,4.57,5.09,5.9,8.32.24.58.17,1.65.61,1.67.6.03.71-.98,1.1-1.49,1.91-2.52,2.47-6.4,6.69-6.6,6.2.49,12.45.02,18.59,1.25,1.59.32,3.3.2,4.51,1.57.98,2.13-.68,3.67-1.2,5.47-4.71,9.58-9.51,19.27-10.21,30.05-.69,10.57.2,21.09,8.8,29.04,4.05,3.75,8.67,5.95,14.35,6.05,9.59.17,19.16.07,27.37-5.73,11.34-8.01,19.27-17.91,19.65-32.9.15-6.02-.54-11.89-.6-17.84.79-2.47,2.68-3.88,4.91-2.64,5.62,3.13,12.12,4.45,17.27,8.5,2.12,4.8.13,9.58-.45,14.25-1.16,9.27-4.11,18.08-7.94,26.67-6.86,15.37-18.82,22.07-35.18,22.43-11.24.25-22.26-1.18-33.25-3.19-2.84-.52-4.61-.86-3.09,3.07,1.05,2.72,1.09,5.63-1.97,7.49-6.27,1.35-12.63.93-18.9.49-13.1-.9-26.28-1.39-39-5.21-3.66-1.24-5.92-3.64-6-7.63-.06-3.63-2.16-4.72-5.38-5.13-5.92-.74-11.81-1.78-17.47-3.78-2.18-.77-4.45-1.43-5.97-3.38Z"/>
      <path class="cls-29" d="m232.73,267.91c9.4-2.17,18.34,1.18,27.41,2.49,5.03.73,10.01,2.41,14.77,4.3,3.66,1.46,4.7.74,4.89-3.06.64-13.07,2.11-26.05,5.51-38.73,2.73-10.19,7.34-19.52,13.88-27.83,1.26-1.6,2.28-3.25,2.82-5.21,6.19,8.58,8.48,18.65,10.67,28.68,4.73,21.73,5.65,43.79,4.94,65.94-.18,5.79-.45,11.62-2.02,17.28-.92.29-1.64-.15-2.19-.75-6.82-7.35-15.81-9.61-25.26-10.8-3.92-.49-5.1-2.22-4.16-6.08.54-2.24,2.14-4.11,2.29-6.49-.3-4.01-3.1-3.3-5.5-2.69-8.37,2.15-16.93,3.38-25.37,5.18-6.04.18-11.9-1.3-17.79-2.19-9.53-1.45-19-3.3-28.55-4.64-2.27-.32-4.68-.5-6.35-2.46-.36-1.24.54-1.85,1.36-2.31,7.94-4.43,16.08-8.44,24.88-10.92,1.24-.35,2.6-.69,3.79.28Z"/>
      <path class="cls-10" d="m209.64,397.77c2.09-2.92.56-5.7-.26-8.54-.3-1.02-1.75-2.13-.64-3.01.69-.55,2.23-.26,3.32-.03,11.22,2.41,22.52,3.83,34.03,3.74,4.19-.03,8.25-.76,12.34-1.41,9.2-1.48,15.63-6.89,20.18-14.76,8.16-14.12,11.94-29.4,11.92-45.66-1.71-7.43-2.56-14.96-2.45-22.59.33-.61.83-1.13,1.51-1.1,5.69.24,10.96,2.29,16.05,4.47,3.57,1.53,3.95,5.81,5.2,9.16-4.53,2.77-4.14,7.71-4.67,11.9-.27,2.11,2.37,3.67,4.98,4.01,6.95.92,13.38,3.5,19.64,6.54,4.33,2.1,6.33,7.4,4.76,14.97-2.53,12.2-8.13,23.08-15.76,32.89-3.65,4.7-8.95,6.12-14.55,6.54-9.18.68-18.25-.47-27.18-2.47-2.7-.6-4.66-.1-6.99,1.22-19.45,11.06-40.7,13.17-62.54,12.32-1.76-.07-2.67-1.09-3.78-2.04.29-3.11,3.55-3.87,4.89-6.15Z"/>
      <path class="cls-33" d="m152.92,327.91c.23.23.66.45.67.68.47,10.1.52,20.15-4.19,29.53-4.02,7.99-10.76,11.14-19.39,11.06-9.33-.09-15.43-4.81-19.2-13.1-3.47-7.65-3.48-15.74-3.3-23.87-1.87-4.13.3-8.13.41-12.2.71-2.67.35-5.45.82-8.16.29-1.67.49-3.2,2.17-4.04,2.87-1.4,5.93-2.28,9.08-2.25,9.39.07,18.81-.97,28.16.62,1.08.62,1.43,1.59,1.33,2.77-.22.61-.48,1.17-1.24,1.33q-6.42,1.4-4.78,7.84c.11,1.67-.71,2.73-2.16,3.41-.88.39-1.99.49-2.04,1.82-.21,5.06.48,10,3.08,14.37,1.81,3.04,5.19,2.11,7.33-1.66,1.47-2.58.87-5.96,3.26-8.16Z"/>
      <path class="cls-21" d="m110.69,308.89c-1.94,3.45-1.29,7.56-2.77,11.12-.59-6.31.41-12.55.78-18.82.15-2.48-.84-4.01-2.64-5.9-6.26-6.57-14.48-6.4-22.4-7.48.79-2.57,3.08-2.23,4.94-2.37,19.2-1.51,38.32-3.06,57.69-2.3,22.96.9,45.83,2.32,68.58,5.4,11.7,1.58,23.31,3.78,35.03,5.24,2.9.95,5.75.8,8.73.11,7.55-1.75,15.06-3.59,22.53-5.64,2.11-.58,4.34-1.95,6.54-.11-.18.63-.3,1.29-.56,1.88-3.6,8.09-3.4,7.21,4.81,9.15,8.74,2.06,18.15,3.94,23.61,12.61-.52,2.89-.35,6.31-4.75,6.27-.47-.16-1.33-.27-1.36-.48-1.19-9.57-9.86-8.75-15.95-11.44-1.48-.66-3.21-.77-4.82-1.13-7.04,1.35-13.66-1.38-20.47-2.14-1.47-.16-2.9-.59-4.37-.83-.78-.13-1.87-.77-2.28-.16-.51.75.73,1.23,1.11,1.88.93,1.58,3,3.15-.03,4.71-1.45-.01-2.44-.91-3.47-1.75-12.95-10.57-29.17-10.45-42.16.31-.51.42-.98.89-1.49,1.31-2.48,1.47-3.47,4.93-6.86,5.21-.29-1.99,1.41-3.06,2.1-4.6,2.23-6.97,8.43-9.21,14.23-11.9.49-.23,1.06.02,1.57.24-.38-.81-1.17-.5-1.74-.52-7.44-.26-14.8-1.6-22.27-1.46-1.99.04-3.98.01-5.94-.38-7.28-.06-14.5-.72-21.73-1.52-2.18-.24-4.27.39-6.35.99-8.83-2.03-17.84-.36-26.72-1.27-.31-.03-.63-.14-.93.03.33,0,.68.01.96.2,1.72,1.18,3.24,2.45,1.66,4.78-1.07.47-2.04.1-2.71-.67-4.78-5.52-11.15-4.34-17.22-3.97-3.4.21-5.54,2.63-7.37,5.39-2.12,3.19-2.77,7.18-5.54,9.99Z"/>
      <path class="cls-2" d="m146.75,198.09c-6.61,3.94-11.08,10.07-15.99,15.73-4.67,4.17-7.12,9.61-9.07,15.42-.76,2.26-1.05,4.83-3.11,6.5-3.28,2.95-3.3,7.33-4.66,11.07-2.02,5.56-4.37,11.05-5.27,16.97-1.13,2.62-.97,5.5-1.7,8.23-1.19,4.43-3.22,7.51-8.17,7.92-1.13.09-2.2.71-3.28,1.14-4.73,1.77-9.71,2.3-14.66,2.97-1.81.25-3.69.46-5.08-1.2-.26-1.61.83-1.79,2.02-2.15,5.08-1.53,10.09-3.28,15.18-4.72,2.83-.8,4.37-2.24,5.18-5.24,3.2-11.67,6.91-23.2,10.01-34.9,1.2-4.52,3.62-8.13,6.34-11.66,5.58-7.23,11.25-14.39,16.94-21.54.78-.97,1.12-2.65,2.76-2.57,5.36.29,7.05-2.66,6.8-7.45,0-.16-.01-.39.08-.48,6.86-6.21,12.2-14.31,21.72-17.22,5.05-1.54,9.99-3.42,14.99-5.14,14.63-5.03,29.71-4.7,44.84-3.76-7.43,4.58-16.02,4.48-24.2,6.09-14.98,2.95-29.77,6.44-41.53,17.19-3.02,3.35-6.2,6.51-10.16,8.78Z"/>
      <path class="cls-20" d="m75.77,282.84c6.91.59,13.35-2.1,20.06-2.91,6.61-.93,12.66-4.08,19.33-4.8,1.47-.16,2.95-.79,4.42-.58,21.48,3.2,43.31.16,64.78,3.58,4.11.66,8.29.19,12.43.34,2.12.08,4.37-.26,6.07,1.53,7.2,3.27,15.11,2.8,22.66,4.27,10,1.95,20.15,3.16,30.24,4.69,2.32,5.54,1.23,6.83-5.12,6.1-12.98-.54-25.6-3.71-38.43-5.35-21.93-2.8-43.93-4.22-66.02-5.16-20.17-.86-40.14,1.03-60.17,2.54-.79.06-1.56.47-2.34.72-1.95-.02-3.93.18-5.83-.11-3.17-.47-3.95-2.5-2.07-4.88Z"/>
      <path class="cls-5" d="m106.72,333.04c.02,8.48.22,16.96-.02,25.43-.11,3.97.35,7.53,2.89,10.66-3.39,3.26-7.93,2.66-11.08,1.12-3.13-1.53-2.73-6.39-3.48-9.79-2.27-10.27-3.92-20.67-5.97-30.99-.6-3,.01-5.06,3.21-5.39,3.83-.4,6.77-3.26,10.79-3.31,2.3-.03,2.7.47,2.84,2.58.22,3.23-.99,6.61.83,9.7Z"/>
      <path class="cls-18" d="m250.98,170.8c-2.59.2-4.73,1.24-6.62,3.08-10.89,10.61-17.83,23.25-20.78,38.26-.92,4.67-2.39,9.24-2.89,14.02-.17,1.67-1.29,3.42-2.84,2.14-1.82-1.51-6.71.17-5.6-3.88,3.69-13.56,7.72-27.01,14.83-39.35,3.96-6.87,9.43-12.34,14.7-18.04,4.03-1.09,6.11,2.56,9.19,3.78Z"/>
      <path class="cls-23" d="m276.78,184.77c-5.33,6.28-10.66,12.45-13.86,20.3-3.47,8.5-5.65,17.2-6.1,26.31-.19,3.81-.27,7.6-1.03,11.37-.52,2.58-1.72,2.56-3.43,1.24-1.64-1.26-2.54-2.81-2.66-5.07-1.12-20.51,4.5-38.66,18.55-53.94,1.27-1.38,2.23-2.89,2.46-4.79,2.03,1.53,4.05,3.05,6.08,4.58Z"/>
      <path class="cls-24" d="m116.63,374.12c8.78,2.79,17.6,5.42,26.84,6.26,2.63.24,3.61,1.6,3.25,4.31-.46,3.54.47,6.58,4.14,8.12,1.52,2.23,5.59,1.47,5.93,5.08-17.12-.44-30.32-8.59-41.49-20.9-2.26-2.49,1.16-1.81,1.33-2.87Z"/>
      <path class="cls-6" d="m156.78,397.89c-1.46-2.3-5.56-1.5-5.93-5.08,6.64.3,12.89,2.73,19.54,3.32,13.07,1.17,26.12,2,39.25,1.64.05,3.38-3.18,4.16-4.89,6.15-4.42,2.18-9.24,1.44-13.66.86-11.56-1.52-23.25-2.74-34.31-6.88Z"/>
      <path class="cls-12" d="m202.86,280.01c-21.08-.17-42.06-2.55-63.18-2.6-5.47-.01-11.65,1.34-17.43-1.2-2.33-1.02-6.01,1.08-8.37,1.03-6.31-.13-11.76,4.08-18.04,2.7,8.11-.98,10.12-6.92,11.27-13.66.15-.89,1.02-1.66,1.55-2.49.04,1.66.04,3.32.14,4.98.06.91-.42,2.26.89,2.51,1.11.21.99-1.04,1.17-1.76.19-.74.81-1.45,1.32-1.06,4.92,3.74,9.03-1.38,13.74-1.27,4.97.12,10.23-.45,14.99-2.7.58-.28,1.29-.49,1.92-.45,16.29,1.12,32.49-4.1,48.59-1.75,13.13,1.91,26.48.57,39.43,3.71,1.15.28,1.75.79,1.88,1.92-10.66,2.3-19.98,7.9-29.87,12.1Z"/>
      <path class="cls-8" d="m146.75,198.09c2.6-3.84,6.23-6.48,10.16-8.78-2.23,6.94-4.32,13.93-6.74,20.8-1.28,3.65-1.34,7.49-2.35,11.16-.09.31-.03.66-.04,1-.07,3.53-2.58,5.69-5.35,5.3-2.99-.42-1.76-3.83-1.33-5.82,1.72-7.92,3.74-15.77,5.66-23.65Z"/>
      <path class="cls-22" d="m118.58,235.74c.88-6.88,4.39-12.73,7.4-18.76.91-1.83,2.61-2.98,4.78-3.15.27,6.97-4.09,12.79-4.89,19.5-.27,2.29-1.1,4.57-1,6.83.16,3.42-1.62,5.19-4.28,6.6-.71.38-1.46,1.25-2.16.59-.47-.44-.68-1.61-.45-2.25,1.1-3.09.82-6.22.6-9.36Z"/>
      <path class="cls-1" d="m208.7,313.55c2.31-1.56,3.13-4.66,5.92-5.73,6.01-2.5,12.12-1.13,18.13-.21,12.48,1.91,24.68,4.9,36.07,10.59,1.18,1.02,1.63,2.27,1.21,3.79,2.15,12.65,2.59,25.15-4.26,36.71-10.82,18.26-31.65,26.09-51.47,19.23-9.64-3.34-13.85-11.7-15.61-21.38-2.06-11.36-.11-22.1,4.9-32.38,1.72-3.53,2.64-7.45,5.1-10.63Z"/>
      <path class="cls-9" d="m270.03,321.98c-.45-.97-.91-1.95-1.36-2.92-2.85-3.18-5.66-6.37-5.92-10.95,1.83-3.4-2.2-3.67-3.05-5.65-.3-.7-1.57-1.13-1.05-1.97.27-.44,1.46-.55,2.18-.43,9.3,1.6,18.59,3.28,27.88,4.93.78,7.69,2.82,15.27,1.82,23.1-5.22-1.92-10.44-3.83-15.22-6.77-1.9-1.17-3.87-2.33-5.28.66Z"/>
      <path class="cls-7" d="m196.86,294.06c9.73-.49,19.38.39,29,1.78.65.09,1.83.23,1.84.39.05.99-.93,1.16-1.63,1.47-5.93,2.61-11.24,6.06-15.28,11.24-5.67-1.72-11.5-1.99-17.37-2-2.29,0-4.64.32-6.7-1.1.66-5.58,4.67-10.23,10.14-11.78Z"/>
      <path class="cls-31" d="m142.86,297.96c.2-.42.69-.96.56-1.23q-2.24-4.77,3.58-4.77c5.12,0,10.24.11,15.36-.04,2.45-.07,4.54.47,6.38,2.05,4.99,2.72,6.72,5.7,5.84,10.07-5.49,1.94-11.15.75-16.72.77-4.56.02-8.61-.3-7.6,6.17-.95.11-1.34-.42-1.47-1.26-.09-.85-.18-1.71-.27-2.56-2.88-2.46-5.78-4.9-5.67-9.2Z"/>
      <path class="cls-3" d="m174.59,304.05c-.42-4.24-3.45-6.97-5.84-10.07,2.17-4.16,6.03-1.98,8.85-1.79,5.88.39,11.69,1.59,17.64.9.5-.06,1.08.62,1.63.96-4.37,3.08-7.95,6.83-10.14,11.79-2.67,2.36-3.68,5.79-5.59,8.65-.38.57-.11,1.91-1.34,1.52-.44-.14-.76-1-.94-1.59-1.06-3.61-1.68-7.39-4.27-10.37Z"/>
      <path class="cls-13" d="m148.8,309.72c.49.42.98.84,1.46,1.26,1.87,5.49,2.87,11.11,2.66,16.93-.2,3.84-1.03,7.52-3.24,10.73-2.22,3.22-5.58,3.6-7.77.57-3.86-5.36-4.4-11.58-3.52-17.93.25-1.78,1.39-1.5,2.44-.47,2.12,2.81.96,6.09,1.28,9.16.29,2.77-.05,6.58,3.57,6.64,3.21.05,3.25-3.71,3.58-6.24.83-6.38-.93-9.43-6.65-12.19-1.23-2.55-3.16-4.97-.44-7.83,2.12-2.23,4.33-1.36,6.62-.62Z"/>
      <path class="cls-30" d="m153.08,373.28c.14.09.87.48,1.48,1,2.41,2.06,4.79,4.09,7.94,5.01,1.25.37,2.6,1.12,1.86,2.89-.59,1.43-1.81,1.22-2.98.9-3.96-1.09-7.2-3.36-10.08-6.2-.79-.78-.89-1.76-.44-2.76.29-.64.76-1.1,2.2-.84Z"/>
      <path class="cls-17" d="m250.63,295.07c5.12.83,5.51-2.31,5.12-6.1,9.11-1.99,18.21-4.03,27.33-5.97,4.34-.92,5.1,1.6,4.64,5.13-9.95,2.43-19.9,4.85-29.85,7.28-2.45.6-4.88.95-7.24-.35Z"/>
      <path class="cls-4" d="m302.24,389.87c-8.69-.57-16.99-2.7-25.18-5.33-2.17-.7-2.26-1.82-.85-3.66,11.59-15.21,16.07-32.74,16.59-51.54.03-1.22-.45-2.98,1.52-3.11,1.72-.11,2.89,1.23,3.19,2.69.81,4.06.76,8.96,5.13,10.66,3.5,1.37,7.68,1.13,11.58,1.33,5.02.27,11.35,4.73,13.14,9.25,1.54,3.9-1.23,6.44-2.89,9.05-5.4,8.52-10.34,17.29-14.91,26.27-1.62,3.18-3.58,5.18-7.31,4.39Z"/>
      <path class="cls-32" d="m142.86,297.96c1.89,3.07,3.78,6.13,5.67,9.2-12.65-.23-25.35-1.6-37.84,1.73.82-5.59,3.26-10.52,7.34-14.26,5.83-5.35,18.82-3.39,24.82,3.33Z"/>
      <path class="cls-11" d="m142.62,318.18c4.34-1.02,6.38.97,7.46,5.07,1.06,4.04.93,7.89-.49,11.7-.67,1.81-1.29,4.01-3.91,3.89-2.84-.14-4.18-2.34-4.54-4.6-.51-3.25-.3-6.62-.37-9.93-.02-1.16.03-2.33.05-3.49,1.32-.39,1.98-1.22,1.79-2.64Z"/>
      <path class="cls-14" d="m262.76,308.11c1.88,3.7,4.75,6.86,5.92,10.95-17.39-6.77-35.17-11.67-54.06-11.24,10.87-12.77,33.34-13.9,45.13-2.29.94.93,2.01,1.72,3.02,2.58Z"/>
      <path class="cls-27" d="m220.59,323.19c-.7-2.76-4.04-5.22-1.04-8.4,3.17-3.36,7.78-2.95,10.72.88,5.56,7.27,4.26,23.95-2.36,30.27-3.21,3.07-7.45,3.16-10.04-.23-4.68-6.13-4.92-13.16-3.31-20.39.42-1.9,1.4-1.45,2.37-.35,2.57.79,2.61,2.45,1.77,4.63-1.37,3.55-1.38,7.19-.07,10.76.71,1.94,1.95,3.6,4.23,3.77,2.08.15,3.35-1.28,4.37-2.86,2.4-3.73,2.7-7.74,1.69-12-1.06-4.47-5.08-4.7-8.33-6.09Z"/>
      <path class="cls-11" d="m220.59,323.19c7.39-2.57,10.84,5.08,10.1,12.36-.58,5.72-4.59,10.7-8.31,10.26-3.61-.43-6.77-6.35-5.99-11.8.27-1.9-.08-4.07,1.42-5.7,1.46-1.58-.41-2.27-.88-3.33,1.58.14,3.09.12,3.66-1.79Z"/>
      <path class="cls-16" d="m298.23,379.88c-1.33,0-2.68.17-3.97-.04-2.54-.4-3.89-1.39-2.38-4.34,4.34-8.46,6.41-17.62,7.86-26.94.19-1.2.3-2.18,1.77-2.58,6.59-1.8,14.74,4.71,14.3,11.31-.14,2.03-1.21,3.43-2.24,4.86-2.16,3.01-3.65,6.28-4.66,9.81-1.67,5.85-4.5,7.98-10.68,7.92Z"/>
    </g>
  </g>
</svg>